<svg width="16" height="17" viewBox="0 0 16 17" fill="none" xmlns="http://www.w3.org/2000/svg">
<path d="M7.99992 4.50004C7.91237 4.50002 7.82567 4.51725 7.74477 4.55074C7.66388 4.58424 7.59038 4.63334 7.52847 4.69525C7.46656 4.75716 7.41745 4.83066 7.38396 4.91156C7.35046 4.99245 7.33323 5.07915 7.33326 5.16671V7.83337H5.99992C5.82311 7.83337 5.65354 7.90361 5.52852 8.02864C5.40349 8.15366 5.33325 8.32323 5.33325 8.50004C5.33325 8.67685 5.40349 8.84642 5.52852 8.97144C5.65354 9.09647 5.82311 9.16671 5.99992 9.16671H7.99992C8.08748 9.16673 8.17418 9.1495 8.25507 9.11601C8.33597 9.08251 8.40947 9.03341 8.47138 8.9715C8.53329 8.90959 8.58239 8.83608 8.61589 8.75519C8.64938 8.6743 8.66661 8.58759 8.66659 8.50004V5.16671C8.66661 5.07915 8.64938 4.99245 8.61589 4.91156C8.58239 4.83066 8.53329 4.75716 8.47138 4.69525C8.40947 4.63334 8.33597 4.58424 8.25507 4.55074C8.17418 4.51725 8.08748 4.50002 7.99992 4.50004ZM7.99992 1.83337C6.68138 1.83337 5.39245 2.22437 4.29612 2.95691C3.19979 3.68945 2.34531 4.73064 1.84072 5.94882C1.33614 7.16699 1.20412 8.50744 1.46135 9.80064C1.71859 11.0938 2.35353 12.2817 3.28588 13.2141C4.21823 14.1464 5.40611 14.7814 6.69932 15.0386C7.99253 15.2958 9.33297 15.1638 10.5511 14.6592C11.7693 14.1547 12.8105 13.3002 13.5431 12.2038C14.2756 11.1075 14.6666 9.81858 14.6666 8.50004C14.6646 6.73255 13.9615 5.03803 12.7117 3.78823C11.4619 2.53842 9.76741 1.8354 7.99992 1.83337ZM7.99992 13.8334C6.94509 13.8334 5.91394 13.5206 5.03688 12.9345C4.15982 12.3485 3.47623 11.5156 3.07256 10.541C2.6689 9.56648 2.56328 8.49412 2.76907 7.45956C2.97485 6.42499 3.48281 5.47468 4.22869 4.7288C4.97457 3.98292 5.92487 3.47497 6.95944 3.26919C7.99401 3.0634 9.06636 3.16902 10.0409 3.57268C11.0154 3.97635 11.8484 4.65994 12.4344 5.537C13.0205 6.41406 13.3333 7.44521 13.3333 8.50004C13.3316 9.91403 12.7692 11.2696 11.7694 12.2695C10.7695 13.2693 9.41391 13.8318 7.99992 13.8334Z" fill="#0098B4"/>
</svg>
