<svg width="21" height="21" viewBox="0 0 21 21" fill="none" xmlns="http://www.w3.org/2000/svg">
<g clip-path="url(#clip0_129_745)">
<path d="M10.8971 18.8332C15.4994 18.8332 19.2304 15.1022 19.2304 10.4998C19.2304 5.89746 15.4994 2.1665 10.8971 2.1665C6.29468 2.1665 2.56372 5.89746 2.56372 10.4998C2.56372 15.1022 6.29468 18.8332 10.8971 18.8332Z" stroke="black" stroke-width="2" stroke-linecap="round" stroke-linejoin="round"/>
<path d="M8.47192 7.99999C8.66784 7.44304 9.05455 6.97341 9.56355 6.67426C10.0726 6.37512 10.671 6.26577 11.2529 6.36558C11.8348 6.46539 12.3626 6.76792 12.7428 7.21959C13.123 7.67126 13.3311 8.24292 13.3303 8.83332C13.3303 10.5 10.8303 11.3333 10.8303 11.3333" stroke="black" stroke-width="2" stroke-linecap="round" stroke-linejoin="round"/>
<path d="M10.897 14.6665H10.9053" stroke="black" stroke-width="2" stroke-linecap="round" stroke-linejoin="round"/>
</g>
<defs>
<clipPath id="clip0_129_745">
<rect width="20" height="20" fill="white" transform="translate(0.896973 0.5)"/>
</clipPath>
</defs>
</svg>
